# xmcd
#
# Track frame offsets:
#  150
#  22505
#  35647
#  57548
#  84938
#  100435
#  120228
#  130682
#  156732
#  178069
#  190809
#  204344
#  224304
#  240037
#
# Disc length: 3532 seconds
#
# Revision: 0
# Processed by: cddbd v1.4PL0 Copyright (c) Steve Scherf et al.
# Submitted via: AltoMP3_Maker 3.0
#
DISCID=b20dca0e
DTITLE=Belkis Akkale - Izzet Altýnmeþe - Ezgi Þöleni
DYEAR=1900
DGENRE=
TTITLE0=Bebek
TTITLE1=Geçen Yýl Gördüm Seni
TTITLE2=Kara Toprak
TTITLE3=Aslým Paktýr
TTITLE4=Sen Bir Yana Bir Yana
TTITLE5=Baradar
TTITLE6=Nesime
TTITLE7=Sus Be Aðlama Gözüm
TTITLE8=Þu Gedikten Aþýrdýlar Yolumu
TTITLE9=Ey Þahin Bakýþlým
TTITLE10=Bu Kalbimin Sevinci
TTITLE11=Kele Meryem
TTITLE12=Karam
TTITLE13=Potpori
EXTD=
EXTT0=
EXTT1=
EXTT2=
EXTT3=
EXTT4=
EXTT5=
EXTT6=
EXTT7=
EXTT8=
EXTT9=
EXTT10=
EXTT11=
EXTT12=
EXTT13=
PLAYORDER=
